<mxfile host="app.diagrams.net" agent="Mozilla/5.0 (Windows NT 10.0; Win64; x64) AppleWebKit/537.36 (KHTML, like Gecko) Chrome/134.0.0.0 Safari/537.36 OPR/119.0.0.0 (Edition std-1)" version="28.0.6">
  <diagram name="Page-1" id="riTdyIcI4bcscJIrnPK_">
    <mxGraphModel dx="824" dy="356" grid="0" gridSize="10" guides="1" tooltips="1" connect="1" arrows="1" fold="1" page="0" pageScale="1" pageWidth="850" pageHeight="1100" math="0" shadow="0">
      <root>
        <mxCell id="0" />
        <mxCell id="1" parent="0" />
        <mxCell id="7cRB-JxagoLuCM3HL7WU-1" value="User" style="swimlane;fontStyle=0;childLayout=stackLayout;horizontal=1;startSize=26;fillColor=none;horizontalStack=0;resizeParent=1;resizeParentMax=0;resizeLast=0;collapsible=1;marginBottom=0;whiteSpace=wrap;html=1;" parent="1" vertex="1">
          <mxGeometry x="1441" y="705" width="140" height="156" as="geometry">
            <mxRectangle x="1441" y="705" width="60" height="26" as="alternateBounds" />
          </mxGeometry>
        </mxCell>
        <mxCell id="7cRB-JxagoLuCM3HL7WU-2" value="+ id (PK): int" style="text;strokeColor=none;fillColor=none;align=left;verticalAlign=top;spacingLeft=4;spacingRight=4;overflow=hidden;rotatable=0;points=[[0,0.5],[1,0.5]];portConstraint=eastwest;whiteSpace=wrap;html=1;" parent="7cRB-JxagoLuCM3HL7WU-1" vertex="1">
          <mxGeometry y="26" width="140" height="26" as="geometry" />
        </mxCell>
        <mxCell id="7cRB-JxagoLuCM3HL7WU-3" value="+ name: string" style="text;strokeColor=none;fillColor=none;align=left;verticalAlign=top;spacingLeft=4;spacingRight=4;overflow=hidden;rotatable=0;points=[[0,0.5],[1,0.5]];portConstraint=eastwest;whiteSpace=wrap;html=1;" parent="7cRB-JxagoLuCM3HL7WU-1" vertex="1">
          <mxGeometry y="52" width="140" height="26" as="geometry" />
        </mxCell>
        <mxCell id="7cRB-JxagoLuCM3HL7WU-4" value="+ email: string" style="text;strokeColor=none;fillColor=none;align=left;verticalAlign=top;spacingLeft=4;spacingRight=4;overflow=hidden;rotatable=0;points=[[0,0.5],[1,0.5]];portConstraint=eastwest;whiteSpace=wrap;html=1;" parent="7cRB-JxagoLuCM3HL7WU-1" vertex="1">
          <mxGeometry y="78" width="140" height="26" as="geometry" />
        </mxCell>
        <mxCell id="7cRB-JxagoLuCM3HL7WU-6" value="+ phone: string" style="text;strokeColor=none;fillColor=none;align=left;verticalAlign=top;spacingLeft=4;spacingRight=4;overflow=hidden;rotatable=0;points=[[0,0.5],[1,0.5]];portConstraint=eastwest;whiteSpace=wrap;html=1;" parent="7cRB-JxagoLuCM3HL7WU-1" vertex="1">
          <mxGeometry y="104" width="140" height="26" as="geometry" />
        </mxCell>
        <mxCell id="7cRB-JxagoLuCM3HL7WU-7" value="+ passwordHash: string" style="text;strokeColor=none;fillColor=none;align=left;verticalAlign=top;spacingLeft=4;spacingRight=4;overflow=hidden;rotatable=0;points=[[0,0.5],[1,0.5]];portConstraint=eastwest;whiteSpace=wrap;html=1;" parent="7cRB-JxagoLuCM3HL7WU-1" vertex="1">
          <mxGeometry y="130" width="140" height="26" as="geometry" />
        </mxCell>
        <mxCell id="7cRB-JxagoLuCM3HL7WU-8" value="SavedRecipe" style="swimlane;fontStyle=0;childLayout=stackLayout;horizontal=1;startSize=26;fillColor=none;horizontalStack=0;resizeParent=1;resizeParentMax=0;resizeLast=0;collapsible=1;marginBottom=0;whiteSpace=wrap;html=1;" parent="1" vertex="1">
          <mxGeometry x="1680" y="731" width="174" height="130" as="geometry">
            <mxRectangle x="1441" y="705" width="60" height="26" as="alternateBounds" />
          </mxGeometry>
        </mxCell>
        <mxCell id="7cRB-JxagoLuCM3HL7WU-9" value="+ id (PK): int" style="text;strokeColor=none;fillColor=none;align=left;verticalAlign=top;spacingLeft=4;spacingRight=4;overflow=hidden;rotatable=0;points=[[0,0.5],[1,0.5]];portConstraint=eastwest;whiteSpace=wrap;html=1;" parent="7cRB-JxagoLuCM3HL7WU-8" vertex="1">
          <mxGeometry y="26" width="174" height="26" as="geometry" />
        </mxCell>
        <mxCell id="7cRB-JxagoLuCM3HL7WU-10" value="+ userId (FK → User): int" style="text;strokeColor=none;fillColor=none;align=left;verticalAlign=top;spacingLeft=4;spacingRight=4;overflow=hidden;rotatable=0;points=[[0,0.5],[1,0.5]];portConstraint=eastwest;whiteSpace=wrap;html=1;" parent="7cRB-JxagoLuCM3HL7WU-8" vertex="1">
          <mxGeometry y="52" width="174" height="26" as="geometry" />
        </mxCell>
        <mxCell id="7cRB-JxagoLuCM3HL7WU-11" value="+ star&lt;span style=&quot;background-color: transparent; color: light-dark(rgb(0, 0, 0), rgb(255, 255, 255));&quot;&gt;Rating int&lt;/span&gt;" style="text;strokeColor=none;fillColor=none;align=left;verticalAlign=top;spacingLeft=4;spacingRight=4;overflow=hidden;rotatable=0;points=[[0,0.5],[1,0.5]];portConstraint=eastwest;whiteSpace=wrap;html=1;" parent="7cRB-JxagoLuCM3HL7WU-8" vertex="1">
          <mxGeometry y="78" width="174" height="26" as="geometry" />
        </mxCell>
        <mxCell id="7cRB-JxagoLuCM3HL7WU-12" value="+ dateSaved: date" style="text;strokeColor=none;fillColor=none;align=left;verticalAlign=top;spacingLeft=4;spacingRight=4;overflow=hidden;rotatable=0;points=[[0,0.5],[1,0.5]];portConstraint=eastwest;whiteSpace=wrap;html=1;" parent="7cRB-JxagoLuCM3HL7WU-8" vertex="1">
          <mxGeometry y="104" width="174" height="26" as="geometry" />
        </mxCell>
        <mxCell id="0TWWb6cAhnwTtQk6iIFq-7" value="CustomRecipe" style="swimlane;fontStyle=0;childLayout=stackLayout;horizontal=1;startSize=26;fillColor=none;horizontalStack=0;resizeParent=1;resizeParentMax=0;resizeLast=0;collapsible=1;marginBottom=0;whiteSpace=wrap;html=1;" vertex="1" parent="1">
          <mxGeometry x="1408" y="912" width="194" height="182" as="geometry">
            <mxRectangle x="1441" y="705" width="60" height="26" as="alternateBounds" />
          </mxGeometry>
        </mxCell>
        <mxCell id="0TWWb6cAhnwTtQk6iIFq-8" value="+ id (PK): int" style="text;strokeColor=none;fillColor=none;align=left;verticalAlign=top;spacingLeft=4;spacingRight=4;overflow=hidden;rotatable=0;points=[[0,0.5],[1,0.5]];portConstraint=eastwest;whiteSpace=wrap;html=1;" vertex="1" parent="0TWWb6cAhnwTtQk6iIFq-7">
          <mxGeometry y="26" width="194" height="26" as="geometry" />
        </mxCell>
        <mxCell id="0TWWb6cAhnwTtQk6iIFq-46" value="+ userId (FK → User): int" style="text;strokeColor=none;fillColor=none;align=left;verticalAlign=top;spacingLeft=4;spacingRight=4;overflow=hidden;rotatable=0;points=[[0,0.5],[1,0.5]];portConstraint=eastwest;whiteSpace=wrap;html=1;" vertex="1" parent="0TWWb6cAhnwTtQk6iIFq-7">
          <mxGeometry y="52" width="194" height="26" as="geometry" />
        </mxCell>
        <mxCell id="0TWWb6cAhnwTtQk6iIFq-9" value="+ title: string" style="text;strokeColor=none;fillColor=none;align=left;verticalAlign=top;spacingLeft=4;spacingRight=4;overflow=hidden;rotatable=0;points=[[0,0.5],[1,0.5]];portConstraint=eastwest;whiteSpace=wrap;html=1;" vertex="1" parent="0TWWb6cAhnwTtQk6iIFq-7">
          <mxGeometry y="78" width="194" height="26" as="geometry" />
        </mxCell>
        <mxCell id="0TWWb6cAhnwTtQk6iIFq-10" value="+ description: string" style="text;strokeColor=none;fillColor=none;align=left;verticalAlign=top;spacingLeft=4;spacingRight=4;overflow=hidden;rotatable=0;points=[[0,0.5],[1,0.5]];portConstraint=eastwest;whiteSpace=wrap;html=1;" vertex="1" parent="0TWWb6cAhnwTtQk6iIFq-7">
          <mxGeometry y="104" width="194" height="26" as="geometry" />
        </mxCell>
        <mxCell id="0TWWb6cAhnwTtQk6iIFq-13" value="+ serving: string" style="text;strokeColor=none;fillColor=none;align=left;verticalAlign=top;spacingLeft=4;spacingRight=4;overflow=hidden;rotatable=0;points=[[0,0.5],[1,0.5]];portConstraint=eastwest;whiteSpace=wrap;html=1;" vertex="1" parent="0TWWb6cAhnwTtQk6iIFq-7">
          <mxGeometry y="130" width="194" height="26" as="geometry" />
        </mxCell>
        <mxCell id="0TWWb6cAhnwTtQk6iIFq-20" value="+ steps: string" style="text;strokeColor=none;fillColor=none;align=left;verticalAlign=top;spacingLeft=4;spacingRight=4;overflow=hidden;rotatable=0;points=[[0,0.5],[1,0.5]];portConstraint=eastwest;whiteSpace=wrap;html=1;" vertex="1" parent="0TWWb6cAhnwTtQk6iIFq-7">
          <mxGeometry y="156" width="194" height="26" as="geometry" />
        </mxCell>
        <mxCell id="0TWWb6cAhnwTtQk6iIFq-14" value="CustomRecipeIngredient" style="swimlane;fontStyle=0;childLayout=stackLayout;horizontal=1;startSize=26;fillColor=none;horizontalStack=0;resizeParent=1;resizeParentMax=0;resizeLast=0;collapsible=1;marginBottom=0;whiteSpace=wrap;html=1;" vertex="1" parent="1">
          <mxGeometry x="1054" y="912" width="254" height="156" as="geometry">
            <mxRectangle x="1441" y="705" width="60" height="26" as="alternateBounds" />
          </mxGeometry>
        </mxCell>
        <mxCell id="0TWWb6cAhnwTtQk6iIFq-15" value="+ id (PK): int" style="text;strokeColor=none;fillColor=none;align=left;verticalAlign=top;spacingLeft=4;spacingRight=4;overflow=hidden;rotatable=0;points=[[0,0.5],[1,0.5]];portConstraint=eastwest;whiteSpace=wrap;html=1;" vertex="1" parent="0TWWb6cAhnwTtQk6iIFq-14">
          <mxGeometry y="26" width="254" height="26" as="geometry" />
        </mxCell>
        <mxCell id="0TWWb6cAhnwTtQk6iIFq-47" value="+ userId (FK → User): int" style="text;strokeColor=none;fillColor=none;align=left;verticalAlign=top;spacingLeft=4;spacingRight=4;overflow=hidden;rotatable=0;points=[[0,0.5],[1,0.5]];portConstraint=eastwest;whiteSpace=wrap;html=1;" vertex="1" parent="0TWWb6cAhnwTtQk6iIFq-14">
          <mxGeometry y="52" width="254" height="26" as="geometry" />
        </mxCell>
        <mxCell id="0TWWb6cAhnwTtQk6iIFq-19" value="+ custRecipId (FK →&amp;nbsp;&lt;span style=&quot;text-align: center;&quot;&gt;CustomRecipe&lt;/span&gt;): int" style="text;strokeColor=none;fillColor=none;align=left;verticalAlign=top;spacingLeft=4;spacingRight=4;overflow=hidden;rotatable=0;points=[[0,0.5],[1,0.5]];portConstraint=eastwest;whiteSpace=wrap;html=1;" vertex="1" parent="0TWWb6cAhnwTtQk6iIFq-14">
          <mxGeometry y="78" width="254" height="26" as="geometry" />
        </mxCell>
        <mxCell id="0TWWb6cAhnwTtQk6iIFq-16" value="+ title: string" style="text;strokeColor=none;fillColor=none;align=left;verticalAlign=top;spacingLeft=4;spacingRight=4;overflow=hidden;rotatable=0;points=[[0,0.5],[1,0.5]];portConstraint=eastwest;whiteSpace=wrap;html=1;" vertex="1" parent="0TWWb6cAhnwTtQk6iIFq-14">
          <mxGeometry y="104" width="254" height="26" as="geometry" />
        </mxCell>
        <mxCell id="0TWWb6cAhnwTtQk6iIFq-18" value="+ quantity: int" style="text;strokeColor=none;fillColor=none;align=left;verticalAlign=top;spacingLeft=4;spacingRight=4;overflow=hidden;rotatable=0;points=[[0,0.5],[1,0.5]];portConstraint=eastwest;whiteSpace=wrap;html=1;" vertex="1" parent="0TWWb6cAhnwTtQk6iIFq-14">
          <mxGeometry y="130" width="254" height="26" as="geometry" />
        </mxCell>
        <mxCell id="0TWWb6cAhnwTtQk6iIFq-21" value="CustomRecipeStep" style="swimlane;fontStyle=0;childLayout=stackLayout;horizontal=1;startSize=26;fillColor=none;horizontalStack=0;resizeParent=1;resizeParentMax=0;resizeLast=0;collapsible=1;marginBottom=0;whiteSpace=wrap;html=1;" vertex="1" parent="1">
          <mxGeometry x="1739" y="912" width="180" height="156" as="geometry">
            <mxRectangle x="1441" y="705" width="60" height="26" as="alternateBounds" />
          </mxGeometry>
        </mxCell>
        <mxCell id="0TWWb6cAhnwTtQk6iIFq-22" value="+ id (PK): int" style="text;strokeColor=none;fillColor=none;align=left;verticalAlign=top;spacingLeft=4;spacingRight=4;overflow=hidden;rotatable=0;points=[[0,0.5],[1,0.5]];portConstraint=eastwest;whiteSpace=wrap;html=1;" vertex="1" parent="0TWWb6cAhnwTtQk6iIFq-21">
          <mxGeometry y="26" width="180" height="26" as="geometry" />
        </mxCell>
        <mxCell id="0TWWb6cAhnwTtQk6iIFq-48" value="+ userId (FK → User): int" style="text;strokeColor=none;fillColor=none;align=left;verticalAlign=top;spacingLeft=4;spacingRight=4;overflow=hidden;rotatable=0;points=[[0,0.5],[1,0.5]];portConstraint=eastwest;whiteSpace=wrap;html=1;" vertex="1" parent="0TWWb6cAhnwTtQk6iIFq-21">
          <mxGeometry y="52" width="180" height="26" as="geometry" />
        </mxCell>
        <mxCell id="0TWWb6cAhnwTtQk6iIFq-23" value="+ custRecipId(FK → User): int" style="text;strokeColor=none;fillColor=none;align=left;verticalAlign=top;spacingLeft=4;spacingRight=4;overflow=hidden;rotatable=0;points=[[0,0.5],[1,0.5]];portConstraint=eastwest;whiteSpace=wrap;html=1;" vertex="1" parent="0TWWb6cAhnwTtQk6iIFq-21">
          <mxGeometry y="78" width="180" height="26" as="geometry" />
        </mxCell>
        <mxCell id="0TWWb6cAhnwTtQk6iIFq-24" value="+ stepNumber: int" style="text;strokeColor=none;fillColor=none;align=left;verticalAlign=top;spacingLeft=4;spacingRight=4;overflow=hidden;rotatable=0;points=[[0,0.5],[1,0.5]];portConstraint=eastwest;whiteSpace=wrap;html=1;" vertex="1" parent="0TWWb6cAhnwTtQk6iIFq-21">
          <mxGeometry y="104" width="180" height="26" as="geometry" />
        </mxCell>
        <mxCell id="0TWWb6cAhnwTtQk6iIFq-25" value="+ description: string" style="text;strokeColor=none;fillColor=none;align=left;verticalAlign=top;spacingLeft=4;spacingRight=4;overflow=hidden;rotatable=0;points=[[0,0.5],[1,0.5]];portConstraint=eastwest;whiteSpace=wrap;html=1;" vertex="1" parent="0TWWb6cAhnwTtQk6iIFq-21">
          <mxGeometry y="130" width="180" height="26" as="geometry" />
        </mxCell>
        <mxCell id="0TWWb6cAhnwTtQk6iIFq-26" value="" style="endArrow=classic;html=1;rounded=0;exitX=1;exitY=0.5;exitDx=0;exitDy=0;entryX=0;entryY=0.5;entryDx=0;entryDy=0;" edge="1" parent="1" source="7cRB-JxagoLuCM3HL7WU-4" target="7cRB-JxagoLuCM3HL7WU-10">
          <mxGeometry width="50" height="50" relative="1" as="geometry">
            <mxPoint x="1689" y="792" as="sourcePoint" />
            <mxPoint x="1739" y="742" as="targetPoint" />
          </mxGeometry>
        </mxCell>
        <mxCell id="0TWWb6cAhnwTtQk6iIFq-27" value="1" style="edgeLabel;html=1;align=center;verticalAlign=middle;resizable=0;points=[];" vertex="1" connectable="0" parent="0TWWb6cAhnwTtQk6iIFq-26">
          <mxGeometry x="-0.7172" y="-2" relative="1" as="geometry">
            <mxPoint x="-4" y="-12" as="offset" />
          </mxGeometry>
        </mxCell>
        <mxCell id="0TWWb6cAhnwTtQk6iIFq-28" value="1..*" style="edgeLabel;html=1;align=center;verticalAlign=middle;resizable=0;points=[];" vertex="1" connectable="0" parent="0TWWb6cAhnwTtQk6iIFq-26">
          <mxGeometry x="0.7576" y="-1" relative="1" as="geometry">
            <mxPoint x="-2" y="-9" as="offset" />
          </mxGeometry>
        </mxCell>
        <mxCell id="0TWWb6cAhnwTtQk6iIFq-42" value="Saves" style="edgeLabel;html=1;align=center;verticalAlign=middle;resizable=0;points=[];" vertex="1" connectable="0" parent="0TWWb6cAhnwTtQk6iIFq-26">
          <mxGeometry x="0.0101" y="-1" relative="1" as="geometry">
            <mxPoint as="offset" />
          </mxGeometry>
        </mxCell>
        <mxCell id="0TWWb6cAhnwTtQk6iIFq-32" value="" style="endArrow=classic;html=1;rounded=0;exitX=0.457;exitY=1.115;exitDx=0;exitDy=0;exitPerimeter=0;entryX=0.5;entryY=0;entryDx=0;entryDy=0;" edge="1" parent="1" source="7cRB-JxagoLuCM3HL7WU-7" target="0TWWb6cAhnwTtQk6iIFq-7">
          <mxGeometry width="50" height="50" relative="1" as="geometry">
            <mxPoint x="1689" y="1025" as="sourcePoint" />
            <mxPoint x="1739" y="975" as="targetPoint" />
          </mxGeometry>
        </mxCell>
        <mxCell id="0TWWb6cAhnwTtQk6iIFq-33" value="1" style="edgeLabel;html=1;align=center;verticalAlign=middle;resizable=0;points=[];" vertex="1" connectable="0" parent="0TWWb6cAhnwTtQk6iIFq-32">
          <mxGeometry x="-0.7025" relative="1" as="geometry">
            <mxPoint x="13" y="-2" as="offset" />
          </mxGeometry>
        </mxCell>
        <mxCell id="0TWWb6cAhnwTtQk6iIFq-34" value="1..*" style="edgeLabel;html=1;align=center;verticalAlign=middle;resizable=0;points=[];" vertex="1" connectable="0" parent="0TWWb6cAhnwTtQk6iIFq-32">
          <mxGeometry x="0.5136" y="2" relative="1" as="geometry">
            <mxPoint x="14" y="5" as="offset" />
          </mxGeometry>
        </mxCell>
        <mxCell id="0TWWb6cAhnwTtQk6iIFq-43" value="Creates" style="edgeLabel;html=1;align=center;verticalAlign=middle;resizable=0;points=[];" vertex="1" connectable="0" parent="0TWWb6cAhnwTtQk6iIFq-32">
          <mxGeometry x="-0.0539" y="1" relative="1" as="geometry">
            <mxPoint as="offset" />
          </mxGeometry>
        </mxCell>
        <mxCell id="0TWWb6cAhnwTtQk6iIFq-35" value="" style="endArrow=classic;html=1;rounded=0;entryX=1;entryY=0.5;entryDx=0;entryDy=0;exitX=0;exitY=0.5;exitDx=0;exitDy=0;" edge="1" parent="1" source="0TWWb6cAhnwTtQk6iIFq-9" target="0TWWb6cAhnwTtQk6iIFq-19">
          <mxGeometry width="50" height="50" relative="1" as="geometry">
            <mxPoint x="1418" y="1023" as="sourcePoint" />
            <mxPoint x="1621" y="1033" as="targetPoint" />
          </mxGeometry>
        </mxCell>
        <mxCell id="0TWWb6cAhnwTtQk6iIFq-36" value="1" style="edgeLabel;html=1;align=center;verticalAlign=middle;resizable=0;points=[];" vertex="1" connectable="0" parent="0TWWb6cAhnwTtQk6iIFq-35">
          <mxGeometry x="-0.7025" relative="1" as="geometry">
            <mxPoint y="-11" as="offset" />
          </mxGeometry>
        </mxCell>
        <mxCell id="0TWWb6cAhnwTtQk6iIFq-37" value="1..*" style="edgeLabel;html=1;align=center;verticalAlign=middle;resizable=0;points=[];" vertex="1" connectable="0" parent="0TWWb6cAhnwTtQk6iIFq-35">
          <mxGeometry x="0.5136" y="2" relative="1" as="geometry">
            <mxPoint x="-4" y="-14" as="offset" />
          </mxGeometry>
        </mxCell>
        <mxCell id="0TWWb6cAhnwTtQk6iIFq-44" value="Creates" style="edgeLabel;html=1;align=center;verticalAlign=middle;resizable=0;points=[];" vertex="1" connectable="0" parent="0TWWb6cAhnwTtQk6iIFq-35">
          <mxGeometry x="-0.0617" y="2" relative="1" as="geometry">
            <mxPoint as="offset" />
          </mxGeometry>
        </mxCell>
        <mxCell id="0TWWb6cAhnwTtQk6iIFq-38" value="" style="endArrow=classic;html=1;rounded=0;exitX=1;exitY=0.5;exitDx=0;exitDy=0;entryX=0;entryY=0.5;entryDx=0;entryDy=0;" edge="1" parent="1" source="0TWWb6cAhnwTtQk6iIFq-9" target="0TWWb6cAhnwTtQk6iIFq-23">
          <mxGeometry width="50" height="50" relative="1" as="geometry">
            <mxPoint x="1455" y="1061" as="sourcePoint" />
            <mxPoint x="1455" y="1135" as="targetPoint" />
          </mxGeometry>
        </mxCell>
        <mxCell id="0TWWb6cAhnwTtQk6iIFq-39" value="1" style="edgeLabel;html=1;align=center;verticalAlign=middle;resizable=0;points=[];" vertex="1" connectable="0" parent="0TWWb6cAhnwTtQk6iIFq-38">
          <mxGeometry x="-0.7025" relative="1" as="geometry">
            <mxPoint x="-2" y="-10" as="offset" />
          </mxGeometry>
        </mxCell>
        <mxCell id="0TWWb6cAhnwTtQk6iIFq-40" value="1..*" style="edgeLabel;html=1;align=center;verticalAlign=middle;resizable=0;points=[];" vertex="1" connectable="0" parent="0TWWb6cAhnwTtQk6iIFq-38">
          <mxGeometry x="0.5136" y="2" relative="1" as="geometry">
            <mxPoint y="-9" as="offset" />
          </mxGeometry>
        </mxCell>
        <mxCell id="0TWWb6cAhnwTtQk6iIFq-45" value="Creates" style="edgeLabel;html=1;align=center;verticalAlign=middle;resizable=0;points=[];" vertex="1" connectable="0" parent="0TWWb6cAhnwTtQk6iIFq-38">
          <mxGeometry x="-0.0345" y="-1" relative="1" as="geometry">
            <mxPoint as="offset" />
          </mxGeometry>
        </mxCell>
      </root>
    </mxGraphModel>
  </diagram>
</mxfile>
